<?xml version="1.0" ?><svg id="Lager_1" style="enable-background:new 0 0 128 128;" version="1.1" viewBox="0 0 128 128" xml:space="preserve" xmlns="http://www.w3.org/2000/svg" xmlns:xlink="http://www.w3.org/1999/xlink"><style type="text/css">
	.st0{fill:#F5F5F5;}
	.st1{fill:#EA4335;}
	.st2{fill:#FBBC05;}
	.st3{fill:#4285F4;}
	.st4{fill:#34A853;}
</style><path class="st0" d="M64,14c-27.6,0-50,22.4-50,50s22.4,50,50,50s50-22.4,50-50S91.6,14,64,14z"/><g><g><path class="st1" d="M56.3,40.2c5.4-1.8,11.4-1.8,16.8,0.2c2.9,1.1,5.7,2.8,8,5.1c-0.8,0.8-1.6,1.6-2.4,2.4    c-1.5,1.5-3.1,3.1-4.6,4.6c-1.5-1.5-3.4-2.6-5.4-3.1c-2.3-0.7-4.9-0.8-7.3-0.3c-2.8,0.7-5.4,2.1-7.5,4.1c-1.6,1.6-2.9,3.8-3.6,5.9    c-2.8-2.1-5.4-4.2-8.2-6.4C45.1,46.9,50.3,42.3,56.3,40.2z"/></g><g><path class="st2" d="M40,59c0.5-2.1,1.1-4.2,2.1-6.4c2.8,2.1,5.4,4.2,8.2,6.4c-1.1,3.1-1.1,6.5,0,9.8c-2.8,2.1-5.4,4.2-8.2,6.4    C39.7,70.1,38.9,64.4,40,59z"/></g><g><path class="st3" d="M64.5,59.2c7.8,0,15.7,0,23.5,0c0.8,4.4,0.7,9-0.7,13.2c-1.1,3.9-3.3,7.5-6.4,10.5c-2.6-2.1-5.2-4.1-8-6.2    c2.6-1.8,4.4-4.6,5.1-7.7c-4.6,0-9.1,0-13.6,0C64.5,65.7,64.5,62.4,64.5,59.2z"/></g><g><path class="st4" d="M42.1,75.2c2.8-2.1,5.4-4.2,8.2-6.4c1,3.1,3.1,5.9,5.7,7.7c1.6,1.1,3.6,2,5.6,2.4c2,0.3,3.9,0.3,6,0    c2-0.3,3.9-1.1,5.6-2.1c2.6,2.1,5.2,4.1,8,6.2c-2.9,2.6-6.4,4.4-10.3,5.4c-4.2,1-8.7,1-12.7-0.2c-3.3-0.8-6.4-2.4-9.1-4.6    C46.2,81.2,43.8,78.3,42.1,75.2z"/></g></g></svg>