<?xml version="1.0" ?><svg id="Lager_1" style="enable-background:new 0 0 128 128;" version="1.1" viewBox="0 0 128 128" xml:space="preserve" xmlns="http://www.w3.org/2000/svg" xmlns:xlink="http://www.w3.org/1999/xlink"><style type="text/css">
	.st0{fill:#00C900;}
	.st1{fill:#FFFFFF;}
</style><g><g><g><g><circle class="st0" cx="64" cy="64" r="50"/></g></g></g></g><g id="WvKSMg.tif"><g><path class="st1" d="M37.4,75.2C37.4,75.2,37.4,75.2,37.4,75.2c0.1-5.1,1.1-9.6,3.7-13.7c4.3-7,10.2-12.3,18-15.1    c6.8-2.5,13.5-2.1,20.1,0.7c1.3,0.6,2.1,0.3,3-0.6c1.5-1.6,2.7-3.4,3.4-5.5c0.1-0.4,0.3-0.9,0.6-1.2c0.2-0.2,0.7-0.4,0.9-0.3    c1.8,0.8,2.2,2.6,1,4.2c-1.3,1.6-2.6,3.2-3.9,4.8c-0.9,1.1-1,2-0.5,3.4c2.9,7.4,1,13.9-4.3,19.5c-4.5,4.8-10.3,7.5-16.6,9    c-3.3,0.8-6.7,0.9-10,1.6c-1.8,0.3-3.5,1-5.2,1.8c-1.9,0.8-3.2,2.3-4,4.2c-0.3,0.6-0.7,1.7-1.2,2.2c-0.2,0.3-0.6,0.3-0.8,0    c-0.4-0.5-0.9-1.5-1.2-2.1C38.2,84,37.5,79.5,37.4,75.2z"/></g></g></svg>