<?xml version="1.0" ?><svg id="Lager_1" style="enable-background:new 0 0 128 128;" version="1.1" viewBox="0 0 128 128" xml:space="preserve" xmlns="http://www.w3.org/2000/svg" xmlns:xlink="http://www.w3.org/1999/xlink"><style type="text/css">
	.st0{fill:#2E372E;}
	.st1{fill:#84E403;}
</style><circle class="st0" cx="64" cy="64" r="50"/><g><path class="st1" d="M42.7,44c-3.6,0-7.1,0.3-9.8,0.8l-0.4,0.1v38.5l0.4,0.1c2.4,0.3,5.2,0.5,8.3,0.5c6.7,0,12-1.9,15.4-5.4   c3.5-3.6,5.3-9,5.3-15.6c0-6.3-1.8-11.1-5.3-14.5C53.3,45.5,48.9,44,42.7,44z M51.3,73.9c-2,2.4-5,3.5-8.8,3.5l0,0h-0.1   c-1,0-2.1,0-2.9-0.1V50.7c0.6-0.1,1.8-0.3,3.7-0.3c3.4,0,6.1,1,8,2.9c2.2,2.2,3.3,5.5,3.3,9.9C54.5,67.9,53.4,71.5,51.3,73.9z"/><path class="st1" d="M92.5,54.9l-2.7,12.7c-0.5,2.6-0.9,4.7-1.2,6.7c-0.4-2-0.9-4.2-1.4-6.7L84,54.9h-5.7L74.8,69   c-0.4,1.7-0.9,3.5-1.2,5.3c-0.4-2.2-0.8-4.4-1.1-6.5l-2.6-13h-7.2L70,83.6h6.4L79.5,72c0.5-1.8,1-3.9,1.4-6.3   c0.4,2.2,0.8,4.2,1.4,6.3l3,11.6h6.4l7.8-28.7C99.5,54.9,92.5,54.9,92.5,54.9z"/></g></svg>