<?xml version="1.0" ?><svg id="Lager_1" style="enable-background:new 0 0 128 128;" version="1.1" viewBox="0 0 128 128" xml:space="preserve" xmlns="http://www.w3.org/2000/svg" xmlns:xlink="http://www.w3.org/1999/xlink"><style type="text/css">
	.st0{fill:#DC395F;}
	.st1{fill:#FFFFFF;}
</style><g><g><g><g><circle class="st0" cx="64" cy="64" r="50"/></g></g></g></g><path class="st1" d="M49,44.8c3,0,5.5-2.4,5.5-5.4c0-3.1-2.5-5.4-5.5-5.4s-5.5,2.4-5.5,5.4C43.5,42.5,46,44.8,49,44.8 M37.6,74  c-0.3,1.4-0.5,2.9-0.5,4.1c0,4.8,2.6,8,8.1,8c4.6,0,8.3-2.7,11-7.1l-1.6,6.6h9.1l5.2-20.9c1.3-5.3,3.8-8,7.6-8c3,0,4.9,1.9,4.9,5  c0,0.9-0.1,1.9-0.4,2.9l-2.7,9.6c-0.4,1.4-0.6,2.8-0.6,4.1c0,4.6,2.7,7.9,8.3,7.9c4.8,0,8.6-3.1,10.7-10.5l-3.6-1.4  c-1.8,5-3.3,5.9-4.6,5.9c-1.2,0-1.9-0.8-1.9-2.4c0-0.7,0.2-1.5,0.4-2.5l2.6-9.3c0.7-2.2,0.9-4.1,0.9-5.9c0-7-4.2-10.6-9.3-10.6  c-4.8,0-9.7,4.3-12.1,8.9l1.8-8.2H57.1l-2,7.2h6.5l-4,16c-3.1,7-8.9,7.1-9.6,6.9c-1.2-0.3-2-0.7-2-2.3c0-0.9,0.2-2.2,0.6-3.7  l6.1-24.2H37.2l-2,7.2h6.4L37.6,74"/></svg>