<?xml version="1.0" ?><svg id="Lager_1" style="enable-background:new 0 0 128 128;" version="1.1" viewBox="0 0 128 128" xml:space="preserve" xmlns="http://www.w3.org/2000/svg" xmlns:xlink="http://www.w3.org/1999/xlink"><style type="text/css">
	.st0{fill:#424A53;}
	.st1{fill:#FFFFFF;}
	.st2{fill:#FF6E61;}
</style><g><g><g><g><circle class="st0" cx="64" cy="64" r="50"/></g></g></g></g><g><path class="st1" d="M81.5,36.9H48.9c-0.8,0-1.4,0.6-1.4,1.4v51.4c0,0.8,0.6,1.4,1.4,1.4h5.7c0.8,0,1.4-0.6,1.4-1.4V45.4h25.6   c0.8,0,1.4-0.6,1.4-1.4v-5.7C82.9,37.5,82.3,36.9,81.5,36.9z"/><path class="st2" d="M94.2,69.1H33.8c-1.5,0-2.8-1.2-2.8-2.8v-2.9c0-1.5,1.2-2.8,2.8-2.8h60.5c1.5,0,2.8,1.2,2.8,2.8v2.9   C97,67.8,95.8,69.1,94.2,69.1z"/></g></svg>