<?xml version="1.0" ?><svg id="Layer_1" style="enable-background:new 0 0 128 128;" version="1.1" viewBox="0 0 128 128" xml:space="preserve" xmlns="http://www.w3.org/2000/svg" xmlns:xlink="http://www.w3.org/1999/xlink"><style type="text/css">
	.st0{fill:#1E2600;}
	.st1{fill:#C1E800;}
	.st2{fill-rule:evenodd;clip-rule:evenodd;fill:#C1E800;}
</style><g><g><path class="st0" d="M64,111.2C38,111.2,16.8,90,16.8,64S38,16.8,64,16.8S111.2,38,111.2,64S90,111.2,64,111.2z"/><path class="st1" d="M64,19.7c24.4,0,44.3,19.9,44.3,44.3S88.4,108.3,64,108.3S19.7,88.4,19.7,64S39.6,19.7,64,19.7 M64,14    c-27.6,0-50,22.4-50,50s22.4,50,50,50s50-22.4,50-50S91.6,14,64,14L64,14z"/></g><g><path class="st2" d="M36.5,44h8.4c0.3,0,0.4,0.1,0.5,0.4c1.5,5.5,5.7,23.3,6.7,29.4h0.1c1.1-5.5,6.1-23.6,7.6-29.4    c0.1-0.3,0.2-0.4,0.5-0.4h8.1c0.3,0,0.4,0.1,0.4,0.3L70.2,83c0.1,0.4-0.1,0.5-0.4,0.5H64c-0.4,0-0.4-0.2-0.4-0.5    c-0.2-12.6-0.2-30.5-0.2-33.7h-0.1c-1,5-6.2,25.2-8.5,33.7c-0.1,0.4-0.2,0.5-0.5,0.5h-5.2c-0.3,0-0.5-0.1-0.5-0.4    c-2.2-8.8-6.2-27-7.6-33.7H41C41,54,40.5,70.2,40,83c0,0.4-0.2,0.5-0.4,0.5h-5.2c-0.4,0-0.5-0.1-0.5-0.4l2.1-38.7    C36.1,44.1,36.2,44,36.5,44z M95.9,77.5c0,0.4,0.1,1.7,0.2,3.7c0,0.2,0,0.4-0.3,0.4c-3.1,1.2-6.6,2.4-11,2.4    c-5.4,0-10.5-2.1-10.5-10.3V54.8c0-0.3,0.1-0.5,0.4-0.5h5.6c0.3,0,0.4,0.2,0.4,0.5v18.1c0,3.5,1.3,5.4,5,5.4    c1.5,0,2.8-0.3,3.7-0.6V54.8c0-0.3,0.1-0.5,0.4-0.5h5.6c0.4,0,0.4,0.2,0.4,0.5V77.5z" id="XMLID_1_"/></g></g></svg>