<?xml version="1.0" ?><svg id="Layer_1" style="enable-background:new 0 0 128 128;" version="1.1" viewBox="0 0 128 128" xml:space="preserve" xmlns="http://www.w3.org/2000/svg" xmlns:xlink="http://www.w3.org/1999/xlink"><style type="text/css">
	.st0{fill:#260601;}
	.st1{fill:#FE3B1A;}
</style><g><path class="st0" d="M64,111.2C38,111.2,16.8,90,16.8,64S38,16.8,64,16.8S111.2,38,111.2,64S90,111.2,64,111.2z"/><path class="st1" d="M64,19.7c24.4,0,44.3,19.9,44.3,44.3S88.4,108.3,64,108.3S19.7,88.4,19.7,64S39.6,19.7,64,19.7 M64,14   c-27.6,0-50,22.4-50,50s22.4,50,50,50s50-22.4,50-50S91.6,14,64,14L64,14z"/></g><path class="st1" d="M92.1,84V62.4c0-6.5-10-10.9-22.5-5.8V84H77V60.4c3.9-1.3,8.4-0.7,8.4,2.6v21H92.1z M55,44h-8L35.9,83.6  l6.2,0.4l3-11.1h11.8l2.9,11.1H67L55,44z M46.7,66.5L50.8,50l4.4,16.6H46.7z"/></svg>