<?xml version="1.0" ?><svg id="Layer_1" style="enable-background:new 0 0 128 128;" version="1.1" viewBox="0 0 128 128" xml:space="preserve" xmlns="http://www.w3.org/2000/svg" xmlns:xlink="http://www.w3.org/1999/xlink"><style type="text/css">
	.st0{fill:#261C00;}
	.st1{fill:#FFBE06;}
</style><g><path class="st0" d="M64,111.2C38,111.2,16.8,90,16.8,64S38,16.8,64,16.8S111.2,38,111.2,64S90,111.2,64,111.2z"/><path class="st1" d="M64,19.7c24.4,0,44.3,19.9,44.3,44.3S88.4,108.3,64,108.3S19.7,88.4,19.7,64S39.6,19.7,64,19.7 M64,14   c-27.6,0-50,22.4-50,50s22.4,50,50,50s50-22.4,50-50S91.6,14,64,14L64,14z"/></g><g><g id="XMLID_8_"><g><path class="st1" d="M41.8,44.7c0-0.4,0.1-0.5,0.3-0.5c2.1-0.1,6.3-0.1,10.5-0.1c10.9,0,12.7,5.4,12.7,10.1     c0,4.4-0.8,7-3.8,8.2v0.1c3.2,1,5.6,4.5,5.6,10c0,6.7-5.9,11.3-15.1,11.3c-3.9,0.1-7.9-0.1-9.8-0.1c-0.3-0.1-0.4-0.2-0.4-0.5     V44.7z M48.1,60.4h7.4c2.1,0,3.6-2.3,3.6-5.3c0-3.8-2-5.3-6.5-5.3c-2.1,0-3.9,0.1-4.5,0.1V60.4z M48.1,77.9     c0.5,0,1.9,0.1,4.2,0.1c4.9,0,7.7-1.5,7.7-5.9c0-3.6-1.7-5.9-7-5.9h-5V77.9z" id="XMLID_41_"/></g></g><g id="XMLID_2_"><g><path class="st1" d="M85.1,53.7c0.2,0,0.5,0,0.7,0.1c0.3,0.1,0.3,0.1,0.3,0.6v5.3c0,0.3-0.1,0.4-0.4,0.4     c-3.1-0.1-4.6-0.2-6.8,0.7v22.8c0,0.4-0.1,0.5-0.4,0.5h-5.7c-0.3,0-0.4-0.1-0.4-0.5V63.1c0-2.7-0.1-4.7-0.3-6.7     C72,56.2,72.1,56,72.4,56C72.4,56,77.6,54.1,85.1,53.7z" id="XMLID_24_"/></g></g></g></svg>