<?xml version="1.0" ?><svg id="Layer_1" style="enable-background:new 0 0 128 128;" version="1.1" viewBox="0 0 128 128" xml:space="preserve" xmlns="http://www.w3.org/2000/svg" xmlns:xlink="http://www.w3.org/1999/xlink"><style type="text/css">
	.st0{fill:#260023;}
	.st1{fill:#FF5FF8;}
</style><g><g><path class="st0" d="M64,111.2C38,111.2,16.8,90,16.8,64S38,16.8,64,16.8S111.2,38,111.2,64S90,111.2,64,111.2z"/><path class="st1" d="M64,19.7c24.4,0,44.3,19.9,44.3,44.3S88.4,108.3,64,108.3S19.7,88.4,19.7,64S39.6,19.7,64,19.7 M64,14    c-27.6,0-50,22.4-50,50s22.4,50,50,50s50-22.4,50-50S91.6,14,64,14L64,14z"/></g><g><g id="XMLID_9_"><g><path class="st1" d="M54.8,82.3c0,0.4-0.1,0.5-0.5,0.5H49c-0.3,0-0.4-0.2-0.4-0.5V44.4c0-0.4,0.2-0.4,0.4-0.4      h5.4c0.3,0,0.4,0.1,0.4,0.4V82.3z" id="XMLID_24_"/></g></g><g id="XMLID_6_"><g><path class="st1" d="M81.4,82.7c0,0.2-0.1,0.4-0.3,0.5c-1.7,1-3.9,0.8-6.4,0.8c-8.2,0-12.4-6.7-12.4-15.1      c0-8.8,5.5-15.4,13.4-15.4c2.7,0,4.5,0.2,5.3,0.7c0.2,0.1,0.3,0.2,0.3,0.6l-0.1,4.8c0,0.4-0.2,0.4-0.4,0.3      c-1.3-0.7-2.7-0.7-4.7-0.7c-4.5,0-7.4,3.9-7.4,9.5c0,6.6,3.5,9.4,7.3,9.4c2.2,0,3.9,0,5-0.6c0.3-0.1,0.4,0.1,0.4,0.3V82.7z" id="XMLID_22_"/></g></g></g></g></svg>