<?xml version="1.0" ?><!DOCTYPE svg  PUBLIC '-//W3C//DTD SVG 1.1//EN'  'http://www.w3.org/Graphics/SVG/1.1/DTD/svg11.dtd'><svg id="Lager_1" style="enable-background:new 0 0 128 128;" version="1.1" viewBox="0 0 128 128" xml:space="preserve" xmlns="http://www.w3.org/2000/svg" xmlns:xlink="http://www.w3.org/1999/xlink"><g><g><circle cx="64" cy="64" r="50" style="fill:#412534;"/></g><g id="Id"><g><path d="M52.5,46v37.4h-6.8V46H52.5z" style="fill:#EB43A3;"/><path d="M82.8,44v31.8c0,2.8,0.1,5.8,0.2,7.6h-6.1l-0.3-4.3h-0.1c-1.6,3-4.9,4.9-8.8,4.9     c-6.4,0-11.5-5.5-11.5-13.8c-0.1-9,5.6-14.4,12.1-14.4c3.7,0,6.4,1.6,7.6,3.6H76V44H82.8z M76,67.6c0-0.6-0.1-1.2-0.2-1.8     C75.2,63.2,73,61,69.9,61c-4.4,0-6.8,3.9-6.8,8.9c0,4.9,2.4,8.5,6.8,8.5c2.8,0,5.2-1.9,5.9-4.8c0.2-0.6,0.2-1.3,0.2-2V67.6     L76,67.6z" style="fill:#EB43A3;"/></g></g></g></svg>