<?xml version="1.0" ?><!DOCTYPE svg  PUBLIC '-//W3C//DTD SVG 1.1//EN'  'http://www.w3.org/Graphics/SVG/1.1/DTD/svg11.dtd'><svg id="Lager_1" style="enable-background:new 0 0 128 128;" version="1.1" viewBox="0 0 128 128" xml:space="preserve" xmlns="http://www.w3.org/2000/svg" xmlns:xlink="http://www.w3.org/1999/xlink"><g><g><circle cx="64" cy="64" r="50" style="fill:#312963;"/></g><g id="Ae"><g><path d="M43.9,71.2l-3.4,11.2h-7.4L45.7,43h9.2l12.8,39.4H60l-3.6-11.2C56.4,71.2,43.9,71.2,43.9,71.2z      M55.2,65.8l-3.1-9.7c-0.8-2.4-1.4-5.1-2-7.4H50c-0.6,2.3-1.2,5-1.9,7.4l-3,9.7H55.2z" style="fill:#C88FFF;"/><path d="M75.6,70.2c0.2,5.1,4.2,7.4,8.8,7.4c3.3,0,5.7-0.5,7.9-1.3l1.1,5c-2.5,1-5.8,1.8-9.9,1.8     c-9.2,0-14.7-5.7-14.7-14.4c0-7.9,4.8-15.3,13.9-15.3C91.9,53.4,95,61,95,67.3c0,1.3-0.1,2.4-0.2,3L75.6,70.2L75.6,70.2z      M88.2,65.2c0.1-2.6-1.1-7-5.9-7c-4.4,0-6.3,4-6.6,7H88.2z" style="fill:#C88FFF;"/></g></g></g></svg>