<?xml version="1.0" ?><!DOCTYPE svg  PUBLIC '-//W3C//DTD SVG 1.1//EN'  'http://www.w3.org/Graphics/SVG/1.1/DTD/svg11.dtd'><svg id="Lager_1" style="enable-background:new 0 0 128 128;" version="1.1" viewBox="0 0 128 128" xml:space="preserve" xmlns="http://www.w3.org/2000/svg" xmlns:xlink="http://www.w3.org/1999/xlink"><g><g><g><circle cx="64" cy="64" r="50" style="fill:#696F57;"/></g></g><g><g><path d="M72.5,94.5c-3.1,0.9-6.2,1.3-9.4,1.2c-5.3-0.2-10.2-1.4-14.8-4.1c-7.9-4.5-13-11.2-15.3-19.9     c-1.1-4-1.3-8.1-0.7-12.3c1-6.9,3.9-12.8,8.7-17.8c4.4-4.6,9.8-7.6,16.1-8.9c3.1-0.7,6.2-0.9,9.4-0.6c6.4,0.5,12.2,2.8,17.2,6.8     c6.1,4.9,10,11.2,11.4,18.9c1.8,9.9-0.5,18.8-7,26.6c-2.1,2.5-4.5,4.6-7.3,6.4c-0.3,0.2-0.5,0.5-0.6,0.8c-1,2.1-2.4,3.7-4.7,4.2     C74.1,96.2,73.4,95.9,72.5,94.5z M81.4,81.8C81.5,81.8,81.5,81.8,81.4,81.8c0.2-0.1,0.2-0.1,0.3-0.2c6.2-6.5,8.7-14.2,7.3-23.1     c-1-7-4.5-12.6-10-16.8c-6.3-4.8-13.4-6.4-21.2-5c-6.2,1.1-11.3,4.2-15.3,9c-5.2,6.2-7.2,13.4-5.9,21.5c1,6.3,3.9,11.5,8.7,15.7     c5.7,5,12.4,7.1,20,6.5c3.3-0.3,6.5-1.2,9.5-2.7c0.8-0.4,1.3-0.9,1.4-1.7c0.1-0.9,0.2-1.9,0.2-2.8c-0.2-2.7-1.4-5.1-3-7.2     c-1.9-2.7-4.3-4.9-6.6-7.2c-0.2-0.2-0.4-0.4-0.5-0.5l0.1-0.1C74.5,68.7,79.8,73.3,81.4,81.8z" style="fill:#F0F5F0;"/><path d="M64.2,63.2c-1.3-0.2-2.7-0.4-4-0.6c-3.1-0.6-5.9-1.8-8.2-4c-1.9-1.9-3-4.2-3.4-6.9     c-0.3-2.1-0.2-4.3,0.2-6.5c0.4,0,0.7,0,1.1,0c2.5,0.1,5,0.4,7.3,1.4c3.8,1.7,5.9,4.7,6.7,8.7C64.5,57.8,64.5,60.5,64.2,63.2z" style="fill:#F0F5F0;"/><path d="M43.9,75c1.6-5.1,4.9-8.4,10-9.8c3.8-1,7.2-0.2,10.4,2c0.4,0.3,0.5,0.6,0.4,1.1     c-1,4-3.6,6.6-7.4,8.1C52.7,78.2,48.3,77.5,43.9,75z" style="fill:#F0F5F0;"/><path d="M81.5,48.4c0.3,3,0.3,6-0.6,8.8c-1.3,4-4,6.3-8,7.3c-2,0.5-4.1,0.6-6.2,0.6     c-0.3-2.8-0.3-5.5,0.5-8.1c0.9-2.9,2.8-5.1,5.5-6.4C75.5,49.1,78.4,48.6,81.5,48.4z" style="fill:#F0F5F0;"/></g></g></g></svg>