<?xml version="1.0" ?><!DOCTYPE svg  PUBLIC '-//W3C//DTD SVG 1.1//EN'  'http://www.w3.org/Graphics/SVG/1.1/DTD/svg11.dtd'><svg id="Lager_1" style="enable-background:new 0 0 128 128;" version="1.1" viewBox="0 0 128 128" xml:space="preserve" xmlns="http://www.w3.org/2000/svg" xmlns:xlink="http://www.w3.org/1999/xlink"><g><g><circle cx="64" cy="64" r="50" style="fill:#403721;"/></g><g><path d="M61.6,61.4c3.2-1.7,5.1-4.7,5.1-8.3c0-3.2-1.4-6-3.8-7.6c-2.4-1.8-5.2-2.5-10.2-2.5    c-3.4,0-7.1,0.3-9.3,0.8L43,43.9v38.5l0.4,0.1c1.6,0.2,4.3,0.5,7.8,0.5c6.4,0,10.5-1.2,13.1-3.7c1.6-1.5,3.5-4.1,3.5-8.3    C67.9,65.8,64.8,62.7,61.6,61.4z M53,58.9h-2.7v-9.6c0.7-0.1,1.7-0.2,3.1-0.2c4,0,6,1.6,6,4.7C59.3,57,56.9,58.9,53,58.9z     M53.1,76.7c-1.2,0-2.1,0-2.8-0.1V65h2.6c2.2,0,7.3,0.6,7.3,5.8C60.3,76,55.8,76.7,53.1,76.7z" style="fill:#E7BA05;"/><path d="M86.9,53.5c-0.5-0.1-0.9-0.2-1.6-0.2c-2.3,0-5,1.4-6.6,4.6L78.5,54H72v0.5c0.1,2.3,0.2,4.9,0.2,8.9    v19.3h7.3V67.8c0-0.8,0.1-1.5,0.2-2.1c0.6-3.1,2.5-4.9,5.2-4.9c0.7,0,1.2,0.1,1.7,0.2l0.6,0.1v-7.6L86.9,53.5z" style="fill:#E7BA05;"/></g></g></svg>