<?xml version="1.0" ?><!DOCTYPE svg  PUBLIC '-//W3C//DTD SVG 1.1//EN'  'http://www.w3.org/Graphics/SVG/1.1/DTD/svg11.dtd'><svg enable-background="new 0 0 128 128" id="Lager_1" version="1.1" viewBox="0 0 128 128" xml:space="preserve" xmlns="http://www.w3.org/2000/svg" xmlns:xlink="http://www.w3.org/1999/xlink"><path d="M64,14c-27.6,0-50,22.4-50,50s22.4,50,50,50s50-22.4,50-50S91.6,14,64,14z" fill="#FDB917"/><polygon points="58.8,52.5 58.8,86.4 47.1,86.4 47.1,52.5 38.7,52.5 38.7,43 67.2,43 67.2,52.5 "/><path d="M84.9,86.6C83.5,86.9,82,87,80.1,87c-3.9,0-6.7-1-8.4-2.9c-1.7-1.9-2.6-4.8-2.6-8.8v-13h-3.6l7.6-16.1h7.6v7.4H89v8.7h-8.2  v12.3c0,2.2,1,3.3,3.1,3.3l0,0c0.8,0,1.6-0.2,2.5-0.4c0.2,3.2,1.2,5.8,2.9,7.8C87.8,85.8,86.2,86.3,84.9,86.6z"/></svg>